<svg id="Layer_1" data-name="Layer 1" xmlns="http://www.w3.org/2000/svg" viewBox="0 0 167.62 89">
  <title>logo_lines</title>
  <line x1="12.26" y1="30.65" x2="12.26" y2="75.67" fill="none"/>
  <line x1="30.14" y1="30.65" x2="30.14" y2="58.35" fill="none"/>
  <line x1="48.03" y1="13.33" x2="48.03" y2="58.35" fill="none"/>
  <line x1="65.92" y1="13.33" x2="65.92" y2="58.35" fill="none"/>
  <line x1="83.81" y1="30.65" x2="83.81" y2="58.35" fill="none"/>
  <line x1="101.7" y1="30.65" x2="101.7" y2="58.35" fill="none"/>
  <line x1="119.59" y1="30.65" x2="119.59" y2="58.35" fill="none"/>
  <line x1="137.48" y1="13.33" x2="137.48" y2="58.35" fill="none"/>
  <line x1="155.37" y1="30.65" x2="155.37" y2="58.35" fill="none"/>
  <path d="M0,89H155.86a11.63,11.63,0,0,0,11.76-11.49v-66A11.63,11.63,0,0,0,155.86,0H11.76A11.63,11.63,0,0,0,0,11.49V83" fill="none"/>
</svg>
