<?xml version="1.0" encoding="utf-8"?>
<!-- Generator: Adobe Illustrator 24.0.1, SVG Export Plug-In . SVG Version: 6.00 Build 0)  -->
<svg version="1.1" id="Layer_1" xmlns="http://www.w3.org/2000/svg" xmlns:xlink="http://www.w3.org/1999/xlink" x="0px" y="0px"
	 viewBox="0 0 355.8 248.6" style="enable-background:new 0 0 355.8 248.6;" xml:space="preserve">
<style type="text/css">
	.st0{opacity:0.75;}
	.st1{fill:none;stroke:#4040FF;stroke-width:5.67;stroke-linecap:round;stroke-miterlimit:10;}
	.st2{fill:none;stroke:#4040FF;stroke-width:5.6693;stroke-linecap:round;stroke-miterlimit:10;}
	.st3{fill:none;stroke:#8181FF;stroke-width:2.8346;stroke-linecap:round;stroke-miterlimit:10;}
	.st4{fill:none;stroke:#D6D4FF;stroke-width:1.4173;stroke-linecap:round;stroke-miterlimit:10;}
</style>
<title>pablowako</title>
<g class="st0">
	
		<image style="overflow:visible;" width="323" height="252" xlink:href="CCDBA6E1.png"  transform="matrix(1 0 0 1 16.5634 -1.8889)">
	</image>
</g>
<g>
	<line class="st1" x1="89.4" y1="103" x2="89.4" y2="188.1"/>
	<line class="st1" x1="112" y1="103" x2="112" y2="145.5"/>
	<line class="st1" x1="133.7" y1="60.5" x2="133.7" y2="145.5"/>
	<line class="st2" x1="155.8" y1="60.5" x2="155.8" y2="145.5"/>
	<line class="st1" x1="177.9" y1="103" x2="177.9" y2="145.5"/>
	<line class="st1" x1="200" y1="103" x2="200" y2="145.5"/>
	<line class="st1" x1="222.2" y1="103" x2="222.2" y2="145.5"/>
	<line class="st1" x1="244.3" y1="60.5" x2="244.3" y2="145.5"/>
	<line class="st1" x1="266.4" y1="103" x2="266.4" y2="145.5"/>
	<path class="st2" d="M60.3,206.5h227.9c4,0,7.3-3.3,7.3-7.3V49.4c0-4-3.3-7.3-7.3-7.3H67.6c-4,0-7.3,3.3-7.3,7.3v136"/>
</g>
<g>
	<line class="st3" x1="89.4" y1="103" x2="89.4" y2="188.1"/>
	<line class="st3" x1="112" y1="103" x2="112" y2="145.6"/>
	<line class="st3" x1="133.7" y1="60.5" x2="133.7" y2="145.6"/>
	<line class="st3" x1="155.8" y1="60.5" x2="155.8" y2="145.6"/>
	<line class="st3" x1="177.9" y1="103" x2="177.9" y2="145.6"/>
	<line class="st3" x1="200" y1="103" x2="200" y2="145.6"/>
	<line class="st3" x1="222.2" y1="103" x2="222.2" y2="145.6"/>
	<line class="st3" x1="244.3" y1="60.5" x2="244.3" y2="145.6"/>
	<line class="st3" x1="266.4" y1="103" x2="266.4" y2="145.6"/>
	<path class="st3" d="M60.3,206.5h227.9c4,0,7.3-3.3,7.3-7.3V49.4c0-4-3.3-7.3-7.3-7.3H67.6c-4,0-7.3,3.3-7.3,7.3v136"/>
</g>
<g>
	<line class="st4" x1="89.4" y1="103" x2="89.4" y2="188.1"/>
	<line class="st4" x1="112" y1="103" x2="112" y2="145.6"/>
	<line class="st4" x1="133.7" y1="60.5" x2="133.7" y2="145.6"/>
	<line class="st4" x1="155.8" y1="60.5" x2="155.8" y2="145.6"/>
	<line class="st4" x1="177.9" y1="103" x2="177.9" y2="145.6"/>
	<line class="st4" x1="200" y1="103" x2="200" y2="145.6"/>
	<line class="st4" x1="222.2" y1="103" x2="222.2" y2="145.6"/>
	<line class="st4" x1="244.3" y1="60.5" x2="244.3" y2="145.6"/>
	<line class="st4" x1="266.4" y1="103" x2="266.4" y2="145.6"/>
	<path class="st4" d="M60.3,206.5h227.9c4,0,7.3-3.3,7.3-7.3V49.4c0-4-3.3-7.3-7.3-7.3H67.6c-4,0-7.3,3.3-7.3,7.3v136"/>
</g>
</svg>
